<svg xmlns="http://www.w3.org/2000/svg" viewBox="0 0 346.8 70.4">
  <defs>
    <style>
      .letters {
        fill: #ffffff;
      }
      .pink {
        fill: #cc3366;
      }
      .blue {
        fill: #48c1c4;
      }
      .yellow {
        fill: #f5cc20;
      }
      .green {
        fill: #6ebd44;
      }
    </style>
  </defs>
  <title>Praxhub logo</title>
  <path class="letters" d="M110.9 36.4c0 13.3-6.8 20-20.3 20-2.8 0-5.1-.1-7-.4v9.2c0 3.4-1.6 5.2-4.9 5.2H75c-1.5 0-2.3-.8-2.3-2.3V21.5c0-2.5 1.3-4 4-4.5 4.4-.9 8.9-1.3 13.6-1.3 7.3 0 12.6 1.6 15.8 4.9 3.2 3.2 4.8 8.5 4.8 15.8zm-11.1.2c0-4.4-.6-7.2-1.7-8.6-1.3-1.6-4.1-2.4-8.4-2.4-2.9 0-4.9.2-6.1.7v19.9c1.4.3 3.5.4 6.2.4 3.8 0 6.4-.7 7.8-2.1 1.5-1.5 2.2-4.1 2.2-7.9zM140.9 22l-.1 1.3c-.1 1.6-.9 2.3-2.4 2.3h-7.8c-3.1 0-4.6 1.2-4.6 3.7v24.2c0 1.5-.8 2.3-2.3 2.3h-6.3c-1.5 0-2.3-.8-2.3-2.3v-23c0-9.8 5.3-14.7 15.8-14.7 3.1 0 5.3.1 6.7.4 2.2.4 3.3 1.9 3.3 4.5V22zm37.7 28.7c0 2.5-1.3 4.1-3.9 4.5-3.8.7-8.5 1.1-14.1 1.1-12.2 0-18.3-4.2-18.3-12.7 0-5.8 3.7-9.6 11.2-11.4.4-.1 3.3-.7 8.7-1.7 2.9-.5 4.8-1 5.5-1.3-.1 0-.1-.1-.1-.1 0-1.6-.8-2.7-2.4-3.2-.9-.3-2.4-.4-4.5-.4-3.4 0-6.4.1-9 .4l-3.9.4c-.1-.1-.2-.1-.4.1-1.2 0-1.9-.7-2.2-2.1 0-.1-.1-1.3-.1-3.4 0-2.7 2.1-4.3 6.5-4.9.7-.1 3.9-.1 9.6-.1 11.6 0 17.4 5 17.4 14.9v19.9zm-10.8-4.3v-7.7l-11.7 2.2c-1.8.3-2.7 1.2-2.7 2.7 0 2.2 2.6 3.2 7.8 3.2 2.7.1 4.9-.1 6.6-.4zm93.3 7.1c0 1.5-.8 2.3-2.3 2.3h-6.3c-1.5 0-2.3-.8-2.3-2.3V31.4c0-2.4-.5-4-1.6-4.8-.9-.6-2.5-.9-5-.9-3.6 0-6.4.2-8.3.7v27.1c0 1.5-.8 2.3-2.3 2.3h-6.3c-1.5 0-2.3-.8-2.3-2.3V5.3c0-3.4 1.7-5.1 5-5.1h3.6c1.5 0 2.3.8 2.3 2.3v13.9c2.9-.4 6-.6 9.2-.6 11 0 16.6 4.8 16.6 14.3v23.4zm41.7-3c0 2.5-1.3 4-3.9 4.5-4.3.9-9.5 1.3-15.5 1.3-11.5 0-17.3-4.8-17.3-14.3V21.4c0-3.4 1.7-5.1 5-5.1h3.6c1.5 0 2.3.8 2.3 2.3v22.1c0 2.4.6 4.1 1.7 4.8.9.6 2.6.9 5.2.9 3.8 0 6.5-.2 8.1-.5V21.4c0-3.4 1.7-5.1 5-5.1h3.6c1.5 0 2.3.8 2.3 2.3v31.9h-.1zm44-15c0 6.9-1.2 11.9-3.7 15-3.2 3.9-8.8 5.8-16.9 5.8-4.3 0-8.8-.5-13.6-1.4-2.6-.5-3.9-2-3.9-4.5V5c0-3.4 1.6-5 4.9-5h3.7c1.5 0 2.3.7 2.3 2.2v13.5c1.7-.1 4.1-.2 7.1-.2 13.4 0 20.1 6.7 20.1 20zm-11-.1c0-3.8-.7-6.5-2-7.8-1.3-1.4-3.9-2.1-7.6-2.1-3.3 0-5.5.2-6.6.6v19.8c1.7.2 3.7.4 6.1.4 4.2 0 6.8-.6 8-1.7 1.4-1.4 2.1-4.4 2.1-9.2zM220.5 53.8c0 1.3-.8 1.9-2.3 1.9h-7.6c-1.3 0-2.3-.5-2.8-1.6l-7.1-10.3-7.2 10.4c-.7 1-1.8 1.5-3.2 1.5h-6.7c-1.5 0-2.3-.7-2.3-1.9 0-.5.3-1.2.8-2l12.2-16.3-11.9-15.1c-.7-.4-1-1.1-1-1.9 0-1.4.8-2.2 2.3-2.2h7.3c1.3 0 2.3.5 3 1.4l7.1 9.4 6.8-9.4c.7-1 1.6-1.4 2.7-1.4h6.8c1.7 0 2.5.7 2.5 2.2 0 .8-.3 1.4-.9 1.9l-11.4 14.7 12 16.8c.6.8.9 1.5.9 1.9z" />
  <path class="pink" d="M26.1 31.4c.6-.6.6-1.3.2-2.1-.6-1-7.2-18.6-7.2-18.6-1.8-3.6-5.2-5.5-9-5.5-2.8 0-5.3 1.1-7.1 3-1.8 1.8-2.9 4.3-3 7.1 0 3.9 1.9 7.2 5.5 9 0 0 17.5 6.6 18.6 7.2.8.5 1.5.4 2-.1z" />
  <path class="blue" d="M29.9 35.1c-.6.6-.6 1.3-.2 2.1.6 1 7.2 18.6 7.2 18.6 1.8 3.6 5.2 5.5 9 5.5 2.8 0 5.3-1.1 7.1-3 1.8-1.8 2.9-4.3 3-7.1 0-3.9-1.9-7.2-5.5-9 0 0-17.5-6.6-18.6-7.2-.8-.4-1.5-.4-2 .1z" />
  <path class="yellow" d="M29.9 31.4c.6.6 1.3.6 2.1.2 1-.6 18.6-7.2 18.6-7.2 3.6-1.8 5.5-5.2 5.5-9 0-2.8-1.1-5.3-3-7.1-1.8-1.8-4.3-2.9-7.1-3-3.9 0-7.2 1.9-9 5.5 0 0-6.6 17.5-7.2 18.6-.5.8-.4 1.5.1 2z" />
  <path class="green" d="M26.2 35.2c-.6-.6-1.3-.6-2.1-.2-1 .6-18.6 7.2-18.6 7.2C1.9 44 0 47.4 0 51.2c0 2.8 1.1 5.3 3 7.1 1.8 1.8 4.3 2.9 7.1 3 3.9 0 7.2-1.9 9-5.5 0 0 6.6-17.5 7.2-18.6.4-.8.4-1.5-.1-2z" />
</svg>
